<svg width="87" height="87" viewBox="0 0 87 87" fill="none" xmlns="http://www.w3.org/2000/svg">
<g filter="url(#filter0_i_1_14)">
<path d="M43.5 8.14429C34.8923 8.14464 26.5657 11.2078 20.0099 16.7857C13.454 22.3636 9.09692 30.0923 7.71808 38.5888C6.33925 47.0853 8.02869 55.7952 12.4841 63.16C16.9395 70.5249 23.8702 76.064 32.036 78.7864C33.8485 79.1037 34.5282 78.0162 34.5282 77.0646C34.5282 76.2037 34.4828 73.3489 34.4828 70.313C25.375 71.9896 23.0187 68.0928 22.2937 66.0538C21.4893 64.0706 20.214 62.3132 18.5781 60.9333C17.3094 60.2537 15.4969 58.5771 18.5328 58.5319C19.692 58.6576 20.8038 59.061 21.774 59.7078C22.7442 60.3546 23.5442 61.2257 24.1062 62.2474C24.602 63.138 25.2687 63.9221 26.068 64.5547C26.8674 65.1872 27.7837 65.6559 28.7645 65.9337C29.7452 66.2115 30.7712 66.293 31.7835 66.1737C32.7959 66.0543 33.7747 65.7363 34.664 65.238C34.8209 63.3951 35.6422 61.6721 36.975 60.3897C28.9094 59.4835 20.4812 56.3568 20.4812 42.4913C20.4303 38.8885 21.7597 35.4029 24.1969 32.7491C23.0886 29.6179 23.2183 26.1816 24.5594 23.1428C24.5594 23.1428 27.5952 22.1912 34.5281 26.8585C40.4596 25.2271 46.7216 25.2271 52.6531 26.8585C59.5858 22.146 62.6219 23.1428 62.6219 23.1428C63.9631 26.1816 64.0928 29.6179 62.9844 32.7491C65.4288 35.3983 66.7594 38.887 66.7 42.4913C66.7 56.4021 58.2265 59.4835 50.1609 60.3897C51.026 61.2665 51.6923 62.3193 52.1145 63.4764C52.5367 64.6336 52.7049 65.868 52.6078 67.096C52.6078 71.9445 52.5624 75.8412 52.5624 77.0647C52.5624 78.0163 53.2421 79.1491 55.0546 78.7866C63.206 76.042 70.1168 70.4898 74.5532 63.1212C78.9897 55.7526 80.6631 47.0472 79.2747 38.5589C77.8863 30.0706 73.5265 22.352 66.9735 16.7809C60.4206 11.2098 52.101 8.14876 43.5 8.14429Z" fill="white"/>
</g>
<defs>
<filter id="filter0_i_1_14" x="0" y="0" width="87" height="91" filterUnits="userSpaceOnUse" color-interpolation-filters="sRGB">
<feFlood flood-opacity="0" result="BackgroundImageFix"/>
<feBlend mode="normal" in="SourceGraphic" in2="BackgroundImageFix" result="shape"/>
<feColorMatrix in="SourceAlpha" type="matrix" values="0 0 0 0 0 0 0 0 0 0 0 0 0 0 0 0 0 0 127 0" result="hardAlpha"/>
<feOffset dy="4"/>
<feGaussianBlur stdDeviation="2"/>
<feComposite in2="hardAlpha" operator="arithmetic" k2="-1" k3="1"/>
<feColorMatrix type="matrix" values="0 0 0 0 0 0 0 0 0 0 0 0 0 0 0 0 0 0 0.5 0"/>
<feBlend mode="normal" in2="shape" result="effect1_innerShadow_1_14"/>
</filter>
</defs>
</svg>
