<svg width="87" height="87" viewBox="0 0 87 87" fill="none" xmlns="http://www.w3.org/2000/svg">
<g filter="url(#filter0_i_1_16)">
<path d="M74.2038 7.25H12.7963C12.106 7.24042 11.4206 7.3669 10.7792 7.62223C10.1378 7.87756 9.553 8.25674 9.05817 8.73811C8.56334 9.21948 8.16817 9.79361 7.89525 10.4277C7.62233 11.0618 7.47698 11.7435 7.46753 12.4338V74.5663C7.47698 75.2565 7.62233 75.9382 7.89525 76.5723C8.16817 77.2064 8.56334 77.7805 9.05817 78.2619C9.553 78.7433 10.1378 79.1224 10.7792 79.3778C11.4206 79.6331 12.106 79.7596 12.7963 79.75H74.2038C74.8941 79.7596 75.5795 79.6331 76.2209 79.3778C76.8622 79.1224 77.4471 78.7433 77.9419 78.2619C78.4367 77.7805 78.8319 77.2064 79.1048 76.5723C79.3777 75.9382 79.5231 75.2565 79.5325 74.5663V12.4338C79.5231 11.7435 79.3777 11.0618 79.1048 10.4277C78.8319 9.79361 78.4367 9.21948 77.9419 8.73811C77.4471 8.25674 76.8622 7.87756 76.2209 7.62223C75.5795 7.3669 74.8941 7.24042 74.2038 7.25ZM29.3263 67.9325H18.4513V35.3075H29.3263V67.9325ZM23.8888 30.74C22.389 30.74 20.9506 30.1442 19.8901 29.0837C18.8296 28.0232 18.2338 26.5848 18.2338 25.085C18.2338 23.5852 18.8296 22.1468 19.8901 21.0863C20.9506 20.0258 22.389 19.43 23.8888 19.43C24.6852 19.3397 25.4917 19.4186 26.2555 19.6616C27.0192 19.9046 27.7231 20.3061 28.3209 20.84C28.9187 21.3739 29.3971 22.028 29.7246 22.7595C30.0521 23.491 30.2214 24.2835 30.2214 25.085C30.2214 25.8865 30.0521 26.679 29.7246 27.4105C29.3971 28.142 28.9187 28.7962 28.3209 29.33C27.7231 29.8639 27.0192 30.2654 26.2555 30.5084C25.4917 30.7514 24.6852 30.8303 23.8888 30.74ZM68.5488 67.9325H57.6738V50.4238C57.6738 46.0375 56.115 43.1738 52.1638 43.1738C50.9409 43.1827 49.7502 43.5663 48.7521 44.2728C47.7539 44.9792 46.9963 45.9747 46.5813 47.125C46.2976 47.977 46.1747 48.8743 46.2188 49.7713V67.8962H35.3438C35.3438 67.8962 35.3438 38.2438 35.3438 35.2713H46.2188V39.875C47.2067 38.1608 48.6436 36.7485 50.3746 35.7904C52.1057 34.8322 54.0653 34.3645 56.0425 34.4375C63.2925 34.4375 68.5488 39.1138 68.5488 49.155V67.9325Z" fill="white"/>
</g>
<defs>
<filter id="filter0_i_1_16" x="0" y="0" width="87" height="91" filterUnits="userSpaceOnUse" color-interpolation-filters="sRGB">
<feFlood flood-opacity="0" result="BackgroundImageFix"/>
<feBlend mode="normal" in="SourceGraphic" in2="BackgroundImageFix" result="shape"/>
<feColorMatrix in="SourceAlpha" type="matrix" values="0 0 0 0 0 0 0 0 0 0 0 0 0 0 0 0 0 0 127 0" result="hardAlpha"/>
<feOffset dy="4"/>
<feGaussianBlur stdDeviation="2"/>
<feComposite in2="hardAlpha" operator="arithmetic" k2="-1" k3="1"/>
<feColorMatrix type="matrix" values="0 0 0 0 0 0 0 0 0 0 0 0 0 0 0 0 0 0 0.5 0"/>
<feBlend mode="normal" in2="shape" result="effect1_innerShadow_1_16"/>
</filter>
</defs>
</svg>
